<?xml version="1.0" standalone="no"?>
<!DOCTYPE svg PUBLIC "-//W3C//DTD SVG 20010904//EN"
 "http://www.w3.org/TR/2001/REC-SVG-20010904/DTD/svg10.dtd">
<svg version="1.0" xmlns="http://www.w3.org/2000/svg"
 width="895.000000pt" height="776.000000pt" viewBox="0 0 895.000000 776.000000"
 preserveAspectRatio="xMidYMid meet">
<metadata>
Created by potrace 1.16, written by Peter Selinger 2001-2019
</metadata>
<g transform="translate(0.000000,776.000000) scale(0.100000,-0.100000)"
fill="#000000" stroke="none">
<path d="M8940 7415 l0 -345 -44 0 c-199 0 -413 -125 -521 -305 -112 -188
-119 -425 -17 -620 97 -185 298 -317 505 -332 l77 -6 0 -664 c0 -616 -1 -665
-17 -659 -46 18 -168 110 -252 191 -109 105 -192 224 -241 346 -36 92 -71 148
-119 193 -28 27 -32 28 -60 16 -45 -18 -132 -108 -161 -165 -21 -43 -25 -64
-25 -145 0 -140 29 -194 176 -326 31 -28 52 -58 67 -99 32 -84 102 -176 174
-230 86 -64 126 -83 235 -110 52 -13 103 -30 113 -37 9 -7 38 -29 63 -48 l46
-35 1 -551 0 -551 -56 -27 c-142 -70 -237 -97 -399 -116 -121 -14 -196 -8
-340 31 -111 29 -216 38 -245 19 -26 -17 -19 -154 12 -222 28 -61 92 -130 148
-158 32 -16 42 -16 110 -4 123 22 312 28 450 13 177 -18 189 -17 239 16 37 25
40 30 25 36 -16 6 -15 8 7 8 14 1 30 6 37 13 9 9 12 -172 12 -817 l-1 -830
-36 40 c-44 49 -97 158 -119 245 -12 48 -15 89 -11 155 4 67 2 100 -9 130 -9
22 -25 65 -36 96 l-20 56 -38 -9 c-37 -10 -39 -9 -81 37 -23 25 -63 58 -88 73
-25 14 -49 32 -54 38 -4 8 -20 11 -42 7 -29 -5 -40 0 -74 29 -46 39 -147 92
-161 83 -5 -3 -23 -28 -41 -55 -18 -28 -36 -50 -40 -50 -5 0 -16 -11 -24 -24
-12 -17 -13 -30 -6 -48 19 -50 -37 -222 -115 -355 l-25 -43 -47 34 c-54 38
-121 66 -157 66 -29 0 -30 -6 -10 -57 8 -21 21 -79 30 -129 39 -234 150 -432
347 -619 89 -85 109 -98 250 -168 153 -76 231 -130 243 -167 9 -29 -19 -64
-52 -65 -26 0 -28 -3 -28 -37 l0 -38 222 0 222 0 4 -62 c2 -35 4 1684 5 3820
1 2135 0 3882 -3 3882 -3 0 -5 -155 -5 -345z"/>
<path d="M30 5830 c0 -411 1 -440 21 -510 15 -54 47 -210 49 -235 0 0 -16 -9
-35 -19 l-35 -19 0 -75 0 -74 36 21 c19 12 37 21 39 21 1 0 3 -98 2 -217 0
-190 2 -227 20 -284 l20 -67 -39 -5 c-22 -3 -42 -8 -45 -11 -3 -3 10 -22 28
-43 32 -35 38 -38 82 -35 27 2 47 -1 47 -7 0 -5 33 -35 73 -66 112 -87 140
-159 97 -252 -10 -23 -61 -87 -114 -143 -110 -117 -155 -195 -162 -286 -5 -59
15 -123 41 -131 6 -2 43 48 83 110 419 643 482 1466 167 2174 -90 203 -202
382 -350 558 l-25 30 0 -435z"/>
<path d="M821 6081 l-33 -51 33 -76 33 -76 21 26 c56 71 57 74 16 155 l-37 73
-33 -51z"/>
<path d="M921 5851 l-31 -48 31 -82 31 -82 34 50 c19 28 34 53 34 57 0 16 -55
154 -61 154 -4 0 -21 -22 -38 -49z"/>
<path d="M1011 5601 l-32 -49 24 -93 23 -94 37 58 37 57 -21 85 c-12 47 -25
85 -29 85 -4 0 -22 -22 -39 -49z"/>
<path d="M1082 5328 l-34 -50 13 -87 c19 -131 19 -132 62 -67 l37 56 -16 93
c-9 50 -19 95 -23 99 -3 4 -21 -16 -39 -44z"/>
<path d="M7463 5304 c-49 -129 -48 -129 -79 -132 -25 -3 -41 -21 -120 -135
-50 -73 -94 -138 -98 -144 -5 -10 11 -13 68 -13 l75 0 47 65 46 66 54 -77 c29
-42 55 -78 57 -81 2 -2 27 56 55 128 l51 131 -66 97 c-83 121 -81 118 -90 95z"/>
<path d="M1126 5015 l-38 -58 8 -120 9 -121 38 57 c35 54 37 61 36 134 0 43
-4 98 -7 122 l-7 44 -39 -58z"/>
<path d="M6590 3905 c-147 -38 -245 -139 -271 -279 -19 -102 -1 -177 71 -296
33 -55 41 -78 49 -151 12 -103 44 -188 105 -273 53 -74 110 -127 168 -157 69
-35 107 -68 145 -126 45 -71 84 -106 158 -143 152 -77 323 -36 431 103 l36 46
-22 31 c-32 45 -103 98 -198 149 l-82 44 0 41 c0 38 -5 46 -65 99 -111 99
-233 275 -295 424 -31 74 -59 185 -60 232 0 38 -12 17 -25 -46 l-12 -58 -7 90
c-9 110 -31 198 -59 246 l-22 36 -45 -12z"/>
<path d="M8478 3799 c28 -30 10 -104 -45 -175 l-23 -31 66 18 c36 10 72 26 80
36 34 45 5 117 -59 149 -21 11 -28 12 -19 3z"/>
<path d="M1470 3501 c-19 -37 -11 -148 21 -269 16 -64 33 -155 36 -202 11
-167 -34 -393 -111 -555 -47 -100 -67 -129 -161 -242 -56 -65 -104 -147 -120
-199 -5 -18 3 -27 44 -52 135 -83 269 -78 404 15 46 32 110 125 125 184 6 24
16 63 22 85 6 25 32 68 64 108 127 154 168 341 117 534 -20 78 -21 85 -6 141
30 118 13 233 -51 328 -64 95 -164 143 -294 143 -68 0 -81 -3 -90 -19z"/>
<path d="M794 2821 l-61 -128 40 -66 39 -67 47 0 c40 0 48 4 63 30 12 21 23
28 42 27 21 -2 43 20 135 133 61 74 109 135 108 136 -1 1 -36 4 -77 8 l-75 6
-49 -61 -49 -60 -44 78 c-24 43 -48 81 -52 85 -3 4 -34 -50 -67 -121z"/>
<path d="M6008 1999 c-15 -11 -32 -35 -38 -54 -18 -55 1 -98 65 -145 29 -22
68 -58 87 -81 64 -80 75 -89 113 -89 116 0 126 194 16 314 -62 68 -188 97
-243 55z"/>
<path d="M7684 1808 c-49 -46 -51 -100 -6 -160 53 -70 77 -110 96 -158 25 -64
33 -70 85 -70 55 0 85 24 101 81 35 122 -25 266 -133 318 -63 30 -100 27 -143
-11z"/>
<path d="M2113 1051 c-77 -26 -129 -65 -169 -125 -73 -110 -84 -225 -34 -354
28 -74 30 -85 27 -203 -1 -98 2 -137 17 -186 l19 -63 243 0 244 0 -23 38 c-53
86 -106 230 -133 362 -14 70 -16 111 -9 230 9 178 8 212 -7 273 l-12 47 -55 0
c-31 -1 -79 -9 -108 -19z"/>
<path d="M5883 763 l-113 -138 77 -6 c74 -7 77 -6 98 20 12 14 64 77 114 139
l92 112 -49 0 c-27 0 -62 2 -78 5 -27 5 -36 -3 -141 -132z"/>
<path d="M7334 856 c-33 -12 -76 -33 -95 -46 -41 -28 -89 -71 -89 -80 0 -22
86 -134 122 -160 33 -24 47 -44 64 -91 22 -61 61 -124 95 -155 20 -18 22 -18
73 9 29 15 70 45 91 67 l38 39 -42 49 c-54 66 -90 146 -103 232 -11 72 -55
161 -80 159 -7 0 -40 -10 -74 -23z"/>
<path d="M7635 342 c-10 -37 -26 -88 -37 -114 l-20 -47 34 -30 33 -30 168 -1
c165 0 167 0 167 22 0 11 -18 45 -40 73 -32 41 -56 59 -111 85 -39 18 -89 47
-112 64 -23 18 -47 35 -53 39 -7 4 -17 -17 -29 -61z"/>
</g>
</svg>
