<?xml version="1.0" encoding="utf-8"?>
<!-- Generator: Adobe Illustrator 25.0.1, SVG Export Plug-In . SVG Version: 6.00 Build 0)  -->
<svg version="1.0" id="katman_1" xmlns="http://www.w3.org/2000/svg" xmlns:xlink="http://www.w3.org/1999/xlink" x="0px" y="0px"
	 viewBox="0 0 600 400" style="enable-background:new 0 0 600 400;" xml:space="preserve">
<style type="text/css">
	.st0{fill:#06C167;}
	.st1{fill:#142328;}
</style>
<path class="st0" d="M406.3,208.3c0-8.5-6.8-15.2-15.4-15.2c-8.5,0-15.4,6.7-15.4,15.2s6.9,15.2,15.4,15.2
	C399.5,223.6,406.3,216.9,406.3,208.3 M418.9,183.4v49.9H406v-4.5c-4.5,3.7-10.1,5.8-16.3,5.8c-15.2,0-27.1-11.7-27.1-26.2
	c0-14.5,11.9-26.2,27.1-26.2c6.1,0,11.8,2.1,16.3,5.8v-4.5C406,183.4,418.9,183.4,418.9,183.4z M461.5,222h-9.7
	c-2.9,0-4.8-1.3-4.8-3.9v-23.4h14.5v-11.3H447v-14.2h-13v14.2h-9.8v11.3h9.8v26.5c0,6.7,4.8,12,13.5,12h13.9L461.5,222L461.5,222z
	 M490.8,234.6c14.8,0,23.2-6.9,23.2-16.5c0-6.8-5-11.9-15.3-14.1l-11-2.2c-6.3-1.1-8.4-2.3-8.4-4.6c0-3,3-4.8,8.7-4.8
	c6.1,0,10.6,1.6,11.9,7.2h12.8c-0.7-10.4-8.4-17.4-23.9-17.4c-13.4,0-22.8,5.4-22.8,16c0,7.3,5.2,12,16.4,14.3l12.2,2.8
	c4.8,0.9,6.1,2.2,6.1,4.1c0,3.1-3.7,5.1-9.5,5.1c-7.4,0-11.7-1.6-13.3-7.2h-13C466.9,227.6,474.8,234.6,490.8,234.6 M310.9,165.7
	h48.4v11.5H324v16.5h34.4V205H324v16.7h35.3v11.5h-48.4V165.7z"/>
<path class="st1" d="M287.9,192.7v-9.1h-3.5c-5.5,0-9.5,2.5-12,6.5V184h-9.8v49.2h9.9v-28c0-7.6,4.7-12.6,11.2-12.6H287.9z
	 M216.6,204.1c1.8-7.5,8-12.6,15.3-12.6s13.6,5,15.2,12.6C247.1,204.1,216.6,204.1,216.6,204.1z M232.1,183.1
	c-14.6,0-25.8,11.7-25.8,25.6c0,14.7,11.6,25.7,26.7,25.7c9.1,0,16.6-3.9,21.6-10.5l-7.2-5.2c-3.7,4.9-8.7,7.2-14.5,7.2
	c-8.5,0-15.2-6-16.6-14h40.8v-3.2C257.2,194,246.6,183.1,232.1,183.1 M175.4,225.8c-9.6,0-17.3-7.6-17.3-17.1
	c0-9.5,7.8-17.1,17.3-17.1c9.4,0,17.2,7.5,17.2,17.1C192.6,218.2,184.8,225.8,175.4,225.8 M148.3,233.3h9.8v-6.2
	c4.5,4.6,10.9,7.3,17.9,7.3c14.7,0,26.3-11.5,26.3-25.7c0-14.3-11.6-25.8-26.3-25.8c-7,0-13.3,2.8-17.8,7.3v-24.6h-9.9
	C148.3,165.7,148.3,233.3,148.3,233.3z M113.4,225.3c9.5,0,16.9-7.2,16.9-18v-41.7h10.3v67.5h-10.2V227c-4.6,4.7-11,7.4-18.2,7.4
	c-14.7,0-26-10.5-26-26.5v-42.3h10.4v41.7C96.5,218.3,103.8,225.3,113.4,225.3"/>
</svg>
